<?xml version="1.0" standalone="no"?>
<!DOCTYPE svg PUBLIC "-//W3C//DTD SVG 20010904//EN"
 "http://www.w3.org/TR/2001/REC-SVG-20010904/DTD/svg10.dtd">
<svg version="1.0" xmlns="http://www.w3.org/2000/svg"
 width="1200.000000pt" height="1200.000000pt" viewBox="0 0 1200.000000 1200.000000"
 preserveAspectRatio="xMidYMid meet">

<g transform="translate(0.000000,1200.000000) scale(0.100000,-0.100000)"
fill="#000000" stroke="none">
<path d="M4678 10583 l-3 -268 -157 -3 -158 -3 0 -204 0 -205 -170 0 -170 0 0
105 0 106 -132 -3 -133 -3 -3 -102 -3 -103 -129 0 -130 0 0 -50 0 -50 130 0
129 0 3 -102 3 -103 133 -3 132 -3 0 106 0 105 170 0 170 0 0 -205 0 -205 160
0 160 0 0 -95 0 -95 -37 0 -38 0 2 -387 c2 -300 6 -389 15 -394 34 -19 348
-120 463 -150 l130 -34 -55 -7 c-191 -24 -349 -158 -405 -343 l-12 -40 -71 3
c-132 7 -254 -41 -343 -135 -122 -129 -149 -310 -70 -478 l29 -62 -341 -589
c-187 -324 -345 -608 -352 -632 -9 -36 -18 -46 -51 -61 -52 -24 -110 -90 -124
-143 -12 -42 -9 -127 4 -159 7 -15 2 -15 -56 -2 -88 21 -222 12 -310 -20 -247
-90 -399 -334 -367 -588 5 -40 11 -74 13 -77 3 -2 150 57 326 133 177 75 323
135 325 133 1 -2 -15 -142 -36 -313 -21 -170 -39 -325 -39 -342 0 -31 1 -32
33 -27 231 39 413 198 467 408 45 178 5 380 -100 499 -37 42 -37 47 -2 47 39
1 102 32 139 70 47 48 66 96 67 168 1 50 4 63 18 68 10 3 28 19 40 37 18 25
692 1188 700 1208 2 4 24 9 50 13 l48 7 2 -1273 3 -1274 38 -76 c20 -42 57
-98 82 -126 l45 -50 0 -992 0 -992 -29 -34 c-37 -41 -51 -90 -51 -175 l0 -66
-92 -94 c-184 -187 -250 -348 -291 -714 -2 -16 5 -21 31 -23 31 -3 32 -4 32
-53 l0 -49 726 0 727 0 -6 50 c-6 48 -5 50 18 50 14 0 25 -4 25 -10 0 -5 16
-10 36 -10 l35 0 -2 -52 -3 -53 728 -3 728 -2 -7 55 -6 55 28 0 29 0 -8 99
c-16 191 -83 387 -182 524 -24 34 -77 94 -119 134 l-75 71 -4 94 c-3 87 -5 97
-35 138 l-33 44 0 1004 0 1004 50 55 c58 64 104 155 119 237 8 41 11 453 11
1303 0 1158 1 1242 17 1236 9 -4 41 -11 71 -17 l55 -11 352 -610 c253 -439
360 -615 381 -629 27 -19 29 -24 29 -86 0 -57 5 -74 30 -116 35 -56 104 -103
163 -111 l41 -5 -39 -52 c-75 -99 -110 -206 -110 -336 0 -167 49 -288 161
-400 78 -78 182 -134 288 -154 70 -14 71 -13 71 8 0 11 -18 165 -40 341 -21
175 -38 321 -35 323 2 2 147 -57 322 -132 205 -87 321 -132 328 -125 5 5 11
53 13 107 7 171 -41 296 -163 418 -77 78 -175 133 -273 153 -73 15 -187 14
-251 -3 l-53 -13 9 26 c15 49 8 143 -15 187 -25 49 -78 98 -125 115 -21 7 -33
17 -30 25 8 22 -27 87 -366 674 l-333 575 17 30 c79 139 73 332 -14 458 -109
160 -300 223 -488 163 -19 -6 -23 -2 -33 36 -38 140 -163 274 -300 321 -25 9
-58 19 -75 22 -25 6 -6 14 115 46 132 34 362 109 446 144 l34 14 0 385 0 386
-40 0 -40 0 0 95 0 95 155 0 155 0 0 205 0 205 170 0 170 0 0 -105 0 -106 133
3 132 3 1 100 2 100 128 5 129 5 0 45 0 45 -129 5 -128 5 -2 100 -1 100 -132
3 -133 3 0 -106 0 -105 -170 0 -170 0 0 205 0 204 -152 3 -153 3 -3 268 -2
267 -1365 0 -1365 0 -2 -267z m2010 170 c-351 -2 -925 -2 -1275 0 -351 1 -64
2 637 2 701 0 988 -1 638 -2z m632 -783 l0 -770 -1275 0 -1275 0 0 770 0 770
1275 0 1275 0 0 -770z m-2893 -317 c-1 -109 -2 -20 -2 197 0 217 1 306 2 198
2 -109 2 -287 0 -395z m253 197 l0 -390 -120 0 -120 0 0 385 0 384 118 4 c64
1 118 4 120 5 1 1 2 -173 2 -388z m2962 2 l3 -377 5 385 5 385 3 -391 2 -392
-125 -1 -125 -2 0 388 0 388 115 -3 115 -3 2 -377z m-3682 -2 l0 -210 -80 0
-80 0 0 210 0 210 80 0 80 0 0 -210z m17 -107 c-1 -60 -3 -11 -3 107 0 118 2
167 3 108 2 -60 2 -156 0 -215z m4130 0 c-1 -60 -3 -11 -3 107 0 118 2 167 3
108 2 -60 2 -156 0 -215z m173 107 l0 -210 -80 0 -80 0 0 210 0 210 80 0 80 0
0 -210z m-870 -1052 c0 -219 -4 -328 -10 -318 -9 14 -14 7 -11 -13 1 -5 -8 -5
-20 -2 -16 5 -19 4 -14 -6 6 -9 3 -11 -8 -6 -10 4 -17 2 -17 -4 0 -6 -7 -9
-15 -5 -8 3 -15 1 -15 -5 0 -6 -7 -9 -15 -5 -8 3 -15 1 -15 -5 0 -6 -7 -8 -16
-5 -10 4 -13 2 -8 -6 5 -7 0 -9 -14 -6 -14 4 -20 2 -15 -5 4 -6 -2 -8 -15 -5
-12 4 -22 2 -22 -4 0 -6 -7 -8 -15 -4 -8 3 -15 1 -15 -5 0 -6 -9 -8 -21 -4
-16 5 -19 4 -14 -6 6 -9 2 -11 -13 -7 -12 4 -22 2 -22 -4 0 -5 -10 -6 -21 -3
-16 5 -19 4 -14 -6 6 -9 2 -11 -13 -7 -12 4 -22 2 -22 -4 0 -6 -9 -8 -20 -5
-11 3 -20 1 -20 -5 0 -5 -9 -6 -20 -3 -12 4 -20 2 -20 -5 0 -8 -9 -10 -26 -6
-18 5 -24 3 -18 -5 5 -9 -1 -10 -20 -5 -20 5 -26 4 -20 -5 5 -9 -1 -10 -25 -6
-23 5 -30 3 -25 -5 5 -8 -2 -9 -25 -5 -23 5 -30 3 -25 -5 5 -8 -3 -9 -30 -5
-25 4 -34 2 -30 -5 5 -8 -4 -9 -30 -5 -25 4 -34 2 -30 -5 5 -8 -4 -9 -30 -5
-25 4 -34 2 -30 -5 5 -8 -7 -9 -39 -6 -31 4 -44 2 -40 -5 4 -7 -13 -8 -51 -4
-39 4 -54 2 -50 -5 5 -8 -16 -9 -72 -5 -53 5 -74 4 -64 -3 10 -6 -59 -10 -205
-9 -136 0 -212 4 -200 9 12 6 -12 7 -64 3 -59 -4 -82 -3 -77 5 4 7 -11 9 -50
5 -39 -4 -55 -3 -51 4 5 8 -7 9 -35 6 -30 -5 -39 -3 -34 6 6 8 -4 10 -35 5
-29 -5 -40 -4 -35 4 4 7 -5 9 -30 5 -26 -4 -35 -3 -30 5 4 7 -5 9 -30 5 -27
-4 -35 -3 -30 5 5 8 -2 10 -25 5 -24 -4 -30 -3 -25 6 6 8 1 10 -18 5 -17 -4
-26 -2 -26 5 0 7 -10 9 -26 5 -20 -5 -25 -4 -20 5 6 9 0 10 -20 5 -19 -5 -25
-4 -20 5 6 9 0 10 -20 5 -19 -5 -25 -4 -20 5 6 9 0 10 -20 5 -19 -5 -25 -4
-20 5 6 9 0 10 -20 5 -20 -5 -25 -4 -19 6 5 9 2 10 -14 5 -11 -3 -21 -2 -21 3
0 6 -10 8 -22 4 -15 -4 -19 -2 -13 7 5 10 2 11 -14 6 -12 -4 -21 -2 -21 4 0 6
-7 8 -15 5 -8 -4 -15 -1 -15 5 0 6 -7 8 -15 5 -8 -4 -15 -1 -15 5 0 6 -7 8
-15 5 -8 -4 -15 -1 -15 5 0 6 -7 8 -15 5 -8 -4 -15 -1 -15 5 0 6 -7 8 -15 5
-8 -4 -15 -1 -15 5 0 6 -7 8 -17 4 -11 -5 -14 -3 -8 6 6 10 2 11 -15 6 -17 -5
-21 -4 -15 6 6 9 4 11 -8 6 -9 -3 -18 0 -21 9 -3 9 -10 12 -16 9 -7 -4 -10
103 -10 319 l0 326 1365 0 1365 0 0 -332z m-550 -668 c0 -6 11 -8 25 -4 15 4
25 2 25 -5 0 -6 7 -8 15 -5 8 4 15 1 15 -6 0 -6 4 -8 10 -5 12 8 49 -12 75
-39 11 -12 16 -16 11 -9 -16 24 -1 13 39 -29 22 -23 33 -38 25 -34 -8 4 -1 -5
15 -19 17 -15 23 -24 15 -20 -10 4 -9 1 2 -8 10 -8 15 -17 11 -20 -3 -4 -1 -7
5 -7 6 0 9 -7 5 -17 -5 -12 -3 -14 7 -8 10 6 12 4 7 -8 -4 -10 -2 -17 4 -17 6
0 8 -7 5 -17 -4 -9 -3 -19 1 -22 4 -3 7 -678 5 -1498 l-2 -1493 -1175 0 -1175
0 0 1491 c0 1029 3 1488 10 1484 7 -4 9 2 4 19 -4 16 -2 26 5 26 6 0 8 7 5 15
-4 8 -1 15 6 15 6 0 8 5 5 10 -3 6 -1 10 5 10 6 0 8 5 5 10 -3 6 -1 10 6 10 7
0 10 3 6 6 -3 3 3 14 14 25 11 11 17 23 15 28 -3 4 11 23 32 42 l37 34 -30
-36 c-17 -19 -10 -15 14 10 25 25 41 39 37 31 -4 -9 -2 -8 7 2 8 10 17 15 20
11 4 -3 7 -1 7 6 0 7 5 9 10 6 6 -3 10 -2 10 4 0 6 7 7 17 4 11 -5 14 -3 8 6
-6 10 -2 11 15 6 17 -5 21 -4 15 5 -6 10 0 12 24 7 20 -4 30 -3 26 3 -4 7 289
10 844 10 571 0 851 -3 851 -10z m782 -972 c28 -22 578 -986 578 -1013 0 -15
-9 -31 -25 -41 -22 -14 -28 -15 -46 -2 -22 14 -579 968 -586 1005 -3 13 3 29
16 42 24 24 40 26 63 9z m-3132 -43 c10 -13 11 -21 1 -43 -7 -15 -137 -242
-289 -506 -190 -330 -283 -481 -299 -489 -19 -9 -28 -6 -49 14 -14 13 -23 31
-21 41 3 9 132 238 288 509 181 312 291 494 304 499 22 8 44 0 65 -25z m2672
-2502 c3 -55 2 -101 -4 -104 -5 -3 -6 -14 -2 -24 5 -13 4 -16 -5 -10 -10 6
-11 2 -6 -15 5 -17 4 -20 -5 -15 -8 5 -11 3 -8 -5 2 -8 -2 -21 -9 -29 -36 -42
-66 -84 -50 -72 30 24 18 6 -20 -30 -21 -18 -31 -25 -23 -13 8 11 2 6 -14 -10
-16 -17 -25 -24 -22 -16 5 10 2 9 -7 -2 -8 -10 -17 -15 -20 -11 -4 3 -7 1 -7
-6 0 -7 -4 -9 -10 -6 -5 3 -10 2 -10 -4 0 -6 -7 -7 -17 -4 -11 5 -14 3 -8 -6
6 -10 2 -11 -15 -6 -17 5 -20 4 -15 -5 6 -10 -1 -11 -30 -6 -25 5 -35 4 -30
-3 4 -8 -244 -11 -837 -11 -596 0 -839 3 -828 11 11 8 5 9 -22 4 -25 -4 -38
-2 -38 5 0 6 -5 8 -10 5 -15 -10 -51 5 -44 17 5 7 1 9 -9 5 -10 -3 -17 -2 -17
3 0 5 -10 14 -21 21 -17 9 -20 8 -14 -3 5 -7 -7 3 -26 23 -19 19 -27 26 -19
15 15 -21 15 -21 -7 -2 -13 10 -21 22 -18 26 2 3 -9 21 -24 38 -16 17 -26 33
-23 36 3 3 0 6 -7 6 -7 0 -9 5 -6 10 3 6 1 10 -5 10 -6 0 -8 5 -5 10 3 6 1 10
-5 10 -7 0 -10 7 -6 15 3 8 1 15 -5 15 -7 0 -9 10 -5 26 5 17 3 23 -4 19 -7
-4 -10 26 -10 89 l0 96 1174 0 1173 0 5 -97z m-2175 -635 c-2 -35 -3 -9 -3 57
0 66 1 94 3 63 2 -32 2 -86 0 -120z m129 137 c40 -9 114 -15 195 -15 l129 0 0
-94 c0 -61 -4 -97 -12 -102 -7 -4 -8 -3 -4 4 5 9 -48 12 -208 12 l-216 0 0
115 0 115 25 -10 c14 -5 55 -16 91 -25z m1874 -95 l6 135 2 -137 2 -138 -230
0 -230 0 0 109 0 109 158 4 c119 4 172 10 217 24 l60 20 5 -131 4 -130 6 135z
m-540 -866 l0 -945 -29 -37 c-39 -50 -51 -92 -51 -176 l0 -72 -60 -53 c-161
-141 -286 -391 -307 -613 -3 -38 -9 -68 -13 -68 -4 0 -10 33 -14 73 -21 234
-140 478 -304 628 l-59 54 -5 85 c-6 87 -28 151 -62 179 -14 12 -16 111 -16
952 l0 939 460 0 460 0 0 -946z m-1030 644 c0 -9 4 -8 10 2 7 10 10 -13 10
-75 0 -62 -3 -85 -10 -75 -6 10 -10 11 -10 3 0 -10 -49 -13 -210 -13 l-210 0
0 85 0 85 210 0 c161 0 210 -3 210 -12z m-433 -110 c-2 -24 -4 -7 -4 37 0 44
2 63 4 43 2 -21 2 -57 0 -80z m2008 12 l0 -85 -227 -3 -228 -2 0 80 c0 50 4
80 11 80 5 0 7 5 4 10 -4 7 67 9 217 8 l223 -3 0 -85z m-1555 -262 l0 -98
-222 0 -223 0 3 97 3 98 220 0 219 0 0 -97z m-453 -41 c-2 -23 -3 -1 -3 48 0
50 1 68 3 42 2 -26 2 -67 0 -90z m2009 18 l1 -100 -7 100 -6 100 -2 -98 -2
-98 -220 1 -220 1 0 100 0 99 228 -2 227 -3 1 -100z m-1556 -270 l0 -105 -222
0 -223 0 1 102 1 103 -7 -95 -6 -95 -2 91 c-1 50 1 94 5 97 3 4 107 7 230 7
l223 0 0 -105z m1540 -22 l0 -98 -212 2 c-117 2 -216 3 -220 3 -14 0 -9 178 5
183 6 3 105 6 220 6 l207 1 0 -97z m17 -55 c-2 -29 -3 -6 -3 52 0 58 1 81 3
53 2 -29 2 -77 0 -105z m-1557 -298 l0 -180 -222 0 -223 0 1 177 0 178 -6
-170 -6 -170 -2 166 c-1 91 1 169 5 172 3 4 107 7 230 7 l223 0 0 -180z m1557
-112 c-1 -51 -3 -12 -3 87 0 99 2 141 3 93 2 -48 2 -129 0 -180z m-17 82 l0
-170 -204 0 c-112 0 -211 3 -220 6 -14 5 -16 30 -16 170 l0 164 220 0 220 0 0
-170z m-1540 -352 l0 -113 -220 3 -220 3 -2 107 -2 107 -6 -115 -6 -115 -2
111 c-1 61 1 114 5 117 3 4 107 7 230 7 l223 0 0 -112z m1540 -30 l0 -108
-220 0 -220 0 0 104 c0 61 4 106 10 108 6 2 105 3 220 3 l210 0 0 -107z m17
-55 c-2 -32 -3 -6 -3 57 0 63 1 89 3 58 2 -32 2 -84 0 -115z m-1693 -335 c-3
-5 6 -6 20 -2 17 4 26 2 26 -6 0 -7 8 -9 21 -5 16 5 19 4 14 -6 -6 -9 -3 -11
8 -6 10 3 17 2 17 -3 0 -5 7 -6 17 -3 12 5 14 3 8 -7 -6 -10 -4 -12 8 -7 10 3
17 2 17 -3 0 -5 10 -14 21 -21 17 -9 20 -8 14 3 -3 7 1 4 9 -6 9 -11 16 -16
16 -12 0 5 9 -2 21 -15 11 -13 17 -17 13 -9 -5 8 19 -12 51 -46 33 -33 42 -40
20 -15 l-40 46 47 -44 c26 -24 45 -48 42 -52 -2 -4 12 -25 33 -46 21 -20 31
-34 23 -29 -13 7 -13 6 0 -6 8 -7 16 -20 18 -28 2 -8 10 -20 17 -26 8 -6 12
-14 8 -17 -3 -4 -1 -7 6 -7 7 0 9 -4 6 -10 -3 -5 -1 -10 5 -10 6 0 8 -4 5 -10
-3 -5 -1 -10 5 -10 7 0 9 -7 6 -16 -4 -10 -2 -13 6 -8 8 5 9 2 5 -9 -4 -10 -2
-17 4 -17 6 0 9 -7 5 -15 -3 -8 -1 -15 5 -15 6 0 9 -7 5 -15 -3 -8 -1 -15 5
-15 6 0 8 -9 4 -21 -5 -16 -4 -19 5 -14 10 6 11 1 6 -19 -5 -20 -4 -26 5 -20
9 5 10 -1 6 -25 -4 -20 -3 -30 3 -26 11 7 13 -28 4 -62 l-6 -23 -669 0 -669 0
0 23 c0 18 2 19 11 7 7 -11 8 -3 3 29 -5 33 -3 42 6 36 9 -6 10 1 5 25 -5 23
-4 31 4 25 8 -5 10 1 5 21 -5 20 -4 25 6 19 9 -5 10 -2 5 14 -4 12 -2 21 4 21
6 0 8 7 5 15 -4 8 -1 15 5 15 6 0 8 7 4 17 -5 12 -3 14 7 8 10 -6 12 -4 7 8
-3 10 -2 17 4 17 6 0 7 5 4 10 -3 6 -1 10 5 10 6 0 8 5 5 10 -3 6 -1 10 5 10
6 0 8 5 5 10 -3 6 -1 10 5 10 6 0 8 5 5 10 -3 6 -1 10 6 10 7 0 9 3 6 7 -4 3
0 11 8 17 7 6 15 18 17 26 2 8 12 23 23 33 11 10 13 15 5 11 -8 -3 1 8 20 26
19 18 28 28 20 24 -9 -5 0 4 20 21 19 16 53 47 75 70 21 22 36 33 31 25 -4 -8
2 -4 14 10 12 14 19 18 15 10 -4 -10 -2 -9 8 2 8 10 17 15 20 11 4 -3 7 -1 7
6 0 7 5 9 10 6 6 -3 10 -1 10 5 0 6 5 8 10 5 6 -3 10 -2 10 4 0 6 7 7 17 4 11
-5 14 -3 8 6 -6 10 -2 11 15 6 16 -5 20 -4 15 5 -5 9 -1 10 15 5 16 -5 20 -4
15 5 -6 9 1 10 25 5 20 -4 30 -3 27 2 -4 6 32 10 93 10 55 0 97 -4 94 -9z
m1526 -19 c-11 -8 -5 -9 23 -4 27 4 37 3 32 -5 -5 -7 2 -9 21 -4 20 5 25 4 19
-6 -5 -9 -2 -10 15 -5 17 5 21 4 15 -6 -6 -9 -3 -11 8 -6 20 7 49 -2 42 -13
-2 -4 7 -12 21 -19 20 -9 24 -9 19 1 -4 7 1 4 9 -6 9 -11 16 -16 16 -11 0 5 7
0 16 -11 8 -10 12 -12 8 -4 -3 8 8 -1 26 -20 18 -19 27 -26 20 -15 -7 11 7 -2
31 -30 24 -27 59 -66 79 -84 19 -19 28 -31 20 -27 -8 4 -4 -2 9 -13 13 -12 20
-21 15 -21 -4 0 1 -7 12 -16 10 -8 12 -13 4 -9 -10 4 -9 2 2 -8 10 -8 15 -17
11 -20 -3 -4 -1 -7 6 -7 7 0 9 -4 6 -10 -3 -5 -1 -10 5 -10 6 0 8 -4 5 -10 -3
-5 -1 -10 5 -10 6 0 8 -4 5 -10 -3 -5 -2 -10 4 -10 6 0 7 -7 4 -17 -5 -12 -3
-14 7 -8 10 6 12 4 7 -8 -3 -10 -2 -17 3 -17 5 0 7 -7 4 -15 -4 -8 -1 -15 6
-15 7 0 10 -7 6 -15 -3 -8 -1 -15 5 -15 6 0 8 -9 4 -21 -5 -16 -4 -19 5 -14
10 6 11 1 6 -19 -5 -20 -4 -26 5 -20 8 5 10 -2 7 -25 -2 -17 -1 -31 4 -31 9 0
10 -35 2 -68 l-6 -22 -667 2 -666 3 -3 35 c-2 27 0 31 8 20 7 -11 8 -3 4 29
-5 33 -4 42 5 37 9 -6 10 0 5 20 -5 19 -4 25 5 20 9 -6 10 0 5 20 -5 20 -4 25
6 19 9 -5 10 -2 5 14 -4 12 -2 21 4 21 6 0 8 7 5 15 -4 8 -1 15 5 15 6 0 8 7
4 17 -4 11 -3 14 5 9 8 -5 10 -2 6 8 -3 9 -1 16 6 16 6 0 8 5 5 10 -3 6 -1 10
5 10 6 0 8 5 5 10 -3 6 -1 10 5 10 6 0 8 5 5 10 -3 6 -1 10 5 10 6 0 8 5 5 10
-3 6 -1 10 6 10 7 0 9 3 6 7 -4 3 1 12 11 20 11 10 12 12 2 8 -8 -4 -4 3 10
15 14 12 18 19 10 15 -8 -4 -1 5 15 20 17 14 23 23 15 19 -8 -3 2 8 22 25 20
17 58 55 84 84 26 29 43 45 38 37 -5 -9 2 -4 15 10 13 14 20 18 16 10 -4 -10
-1 -9 8 2 8 10 17 15 20 11 4 -3 7 -1 7 6 0 7 5 9 10 6 6 -3 10 -1 10 5 0 6 5
8 10 5 6 -3 10 -1 10 5 0 6 5 8 10 5 6 -3 10 -1 10 5 0 7 7 9 16 6 10 -4 13
-2 8 6 -5 7 0 9 14 6 14 -4 20 -2 16 4 -5 7 2 9 20 4 20 -5 26 -3 21 5 -6 8 4
9 36 5 32 -5 40 -4 29 3 -11 8 5 11 60 11 56 0 71 -3 60 -11z m-1990 -103 c0
-2 -8 -10 -17 -17 -16 -13 -17 -12 -4 4 13 16 21 21 21 13z m1540 -39 c0 -2
-17 -19 -37 -38 l-38 -34 34 38 c33 34 41 42 41 34z m-496 -587 c-7 -7 -249
-9 -685 -7 l-674 2 678 3 c508 1 677 5 677 14 0 6 3 8 7 5 4 -4 2 -12 -3 -17z"/>
<path d="M5035 9948 c-31 -17 -75 -60 -75 -74 0 -7 -5 -14 -12 -16 -25 -9 22
-104 66 -133 43 -28 99 -30 151 -5 132 64 79 241 -72 240 -21 0 -47 -6 -58
-12z"/>
<path d="M6434 9941 c-36 -22 -84 -81 -84 -103 0 -51 68 -123 126 -134 82 -15
174 50 174 122 0 101 -128 169 -216 115z"/>
<path d="M5224 7369 c-60 -14 -143 -68 -181 -117 -34 -45 -66 -136 -66 -187 0
-51 32 -142 66 -187 42 -55 120 -102 196 -118 54 -11 66 -10 129 9 182 55 276
250 203 419 -34 76 -114 146 -198 172 -71 22 -87 23 -149 9z m182 -47 c66 -34
101 -69 133 -134 88 -176 -27 -385 -224 -405 -162 -17 -308 117 -308 282 0
117 84 235 192 270 61 20 155 14 207 -13z"/>
<path d="M5280 7214 c0 -87 -2 -97 -22 -114 -19 -15 -21 -22 -13 -46 8 -22 18
-30 40 -32 21 -2 49 -22 91 -63 33 -33 63 -56 67 -52 4 4 -20 35 -54 69 -40
41 -60 68 -56 78 3 8 -3 26 -14 39 -16 21 -19 41 -19 121 0 57 -4 96 -10 96
-6 0 -10 -39 -10 -96z"/>
<path d="M5900 6940 l0 -341 83 3 82 3 2 265 2 265 50 3 51 3 0 -270 0 -271
65 0 65 0 0 245 0 245 50 0 50 0 0 -245 0 -245 65 0 65 0 0 200 0 200 53 0 52
0 0 -197 0 -198 63 -3 62 -3 0 166 0 165 50 0 50 0 2 -162 3 -163 63 -3 62 -3
0 341 0 340 -545 0 -545 0 0 -340z"/>
<path d="M5214 6581 c-121 -34 -191 -102 -226 -215 -18 -60 -19 -77 -10 -127
21 -112 77 -191 169 -236 47 -23 71 -28 133 -28 88 0 144 22 209 81 48 43 72
84 95 166 14 47 15 64 5 104 -17 69 -45 123 -88 167 -50 54 -90 73 -211 102
-8 2 -42 -4 -76 -14z m169 -37 c59 -20 132 -89 159 -152 45 -101 20 -230 -59
-309 -53 -53 -106 -76 -186 -81 -85 -5 -144 15 -205 72 -69 63 -87 106 -87
206 0 98 17 140 82 202 77 74 190 98 296 62z"/>
<path d="M5120 6462 c0 -8 27 -44 60 -80 47 -52 59 -72 55 -89 -3 -15 2 -30
15 -43 24 -24 38 -25 62 -4 14 13 36 16 103 15 55 -2 85 2 85 8 0 7 -31 11
-81 11 -75 0 -83 2 -101 26 -13 16 -27 24 -39 21 -14 -4 -38 16 -89 71 -38 43
-70 71 -70 64z"/>
<path d="M6002 6270 c-35 -22 -72 -74 -72 -103 0 -34 33 -89 64 -108 51 -31
92 -25 137 20 34 33 39 45 39 83 0 51 -24 89 -70 113 -38 20 -59 19 -98 -5z"/>
<path d="M6818 6264 c-35 -18 -58 -62 -58 -110 0 -28 8 -44 34 -70 26 -26 42
-34 70 -34 69 0 126 50 126 110 0 39 -31 88 -65 104 -41 20 -72 20 -107 0z"/>
<path d="M4987 5112 c-15 -15 -27 -37 -27 -48 0 -29 41 -64 74 -64 30 0 76 40
76 66 0 25 -50 74 -75 74 -12 0 -33 -13 -48 -28z"/>
<path d="M6936 5109 c-31 -37 -32 -49 -5 -83 15 -19 30 -26 54 -26 24 0 39 7
54 26 12 15 21 32 21 40 0 23 -51 74 -75 74 -14 0 -34 -13 -49 -31z"/>
<path d="M4986 4536 c-39 -35 -31 -77 21 -104 31 -17 37 -15 72 14 37 31 39
53 6 88 -30 32 -66 33 -99 2z"/>
<path d="M6935 4534 c-14 -15 -25 -35 -25 -45 0 -19 54 -69 75 -69 21 0 75 50
75 69 0 28 -46 71 -75 71 -15 0 -36 -11 -50 -26z"/>
<path d="M6688 3773 c56 -2 148 -2 205 0 56 1 10 3 -103 3 -113 0 -159 -2
-102 -3z"/>
<path d="M7003 3700 c0 -47 2 -66 4 -42 2 23 2 61 0 85 -2 23 -4 4 -4 -43z"/>
</g>
</svg>
